<?xml version="1.0" standalone="no"?>
<!DOCTYPE svg PUBLIC "-//W3C//DTD SVG 20010904//EN"
 "http://www.w3.org/TR/2001/REC-SVG-20010904/DTD/svg10.dtd">
<svg version="1.0" xmlns="http://www.w3.org/2000/svg"
 width="719.000000pt" height="147.000000pt" viewBox="0 0 719.000000 147.000000"
 preserveAspectRatio="xMidYMid meet">

<g transform="translate(0.000000,147.000000) scale(0.100000,-0.100000)"
fill="#000000" stroke="none">
<path d="M410 756 l0 -306 143 0 c78 0 160 5 181 10 76 17 127 73 133 147 5
61 -18 109 -69 142 l-37 24 25 19 c57 46 70 138 27 197 -43 57 -74 66 -245 69
l-158 4 0 -306z m310 219 c36 -19 54 -72 38 -116 -16 -46 -53 -59 -168 -59
l-100 0 0 95 0 95 100 0 c70 0 110 -5 130 -15z m41 -283 c33 -36 37 -77 14
-121 -20 -40 -61 -51 -181 -51 l-104 0 0 106 0 106 121 -4 121 -3 29 -33z"/>
<path d="M3970 755 l0 -305 40 0 40 0 0 270 0 270 160 0 160 0 0 -270 0 -270
40 0 40 0 0 305 0 305 -240 0 -240 0 0 -305z"/>
<path d="M1085 887 c-51 -20 -80 -45 -106 -89 -34 -60 -35 -192 -2 -255 69
-129 267 -137 350 -14 30 44 29 48 -9 54 -28 4 -38 -1 -64 -32 -30 -34 -35
-36 -93 -36 -54 0 -64 3 -91 31 -17 17 -35 47 -40 67 l-8 37 164 0 164 0 0 48
c0 54 -26 117 -61 149 -53 49 -139 65 -204 40z m136 -73 c25 -12 59 -64 59
-89 0 -3 -56 -5 -125 -5 -81 0 -125 4 -125 10 0 24 32 70 58 84 36 20 96 20
133 0z"/>
<path d="M1583 885 c-18 -7 -38 -23 -45 -34 -18 -29 -28 -26 -28 9 0 27 -3 30
-30 30 l-30 0 0 -305 0 -305 35 0 35 0 0 111 0 111 30 -25 c39 -33 82 -42 135
-27 111 31 170 168 131 302 -20 69 -48 105 -100 129 -49 22 -89 23 -133 4z
m107 -70 c43 -22 64 -69 64 -145 0 -110 -51 -168 -137 -157 -52 7 -83 38 -97
98 -19 77 -6 136 40 181 42 42 80 49 130 23z"/>
<path d="M4683 891 c-60 -15 -101 -53 -117 -107 -6 -18 -2 -22 26 -27 20 -2
35 0 37 7 2 6 17 23 32 38 23 23 36 28 79 28 79 0 119 -29 120 -87 0 -14 -45
-27 -149 -43 -115 -17 -161 -56 -161 -138 0 -118 160 -162 277 -76 l31 24 7
-30 c6 -27 10 -30 46 -30 30 0 38 3 32 13 -4 6 -11 86 -14 177 -6 179 -13 206
-61 235 -34 20 -135 29 -185 16z m174 -267 c-12 -74 -64 -114 -147 -114 -30 0
-47 7 -65 25 -31 30 -31 40 -2 69 17 17 43 26 102 35 43 6 81 14 84 16 2 3 11
5 19 5 11 0 13 -8 9 -36z"/>
<path d="M5625 887 c-51 -20 -80 -45 -106 -89 -34 -60 -35 -192 -2 -255 69
-129 267 -137 350 -14 30 44 29 48 -9 54 -28 4 -38 -1 -64 -32 -30 -34 -35
-36 -93 -36 -54 0 -64 3 -91 31 -17 17 -35 47 -40 67 l-8 37 164 0 164 0 0 48
c0 54 -26 117 -61 149 -53 49 -139 65 -204 40z m136 -73 c25 -12 59 -64 59
-89 0 -3 -56 -5 -125 -5 -81 0 -125 4 -125 10 0 24 32 70 58 84 36 20 96 20
133 0z"/>
<path d="M1880 884 c0 -3 32 -50 71 -105 43 -61 67 -104 63 -112 -5 -6 -41
-58 -81 -114 l-73 -103 44 0 c43 0 44 1 96 78 29 42 57 81 61 86 4 4 33 -30
65 -78 55 -83 58 -86 96 -86 21 0 38 2 38 5 0 3 -31 49 -68 103 -37 53 -71
103 -75 109 -5 8 19 51 62 112 39 55 71 102 71 105 0 3 -18 6 -39 6 -38 0 -42
-3 -92 -75 -28 -41 -53 -75 -55 -75 -2 0 -26 34 -54 75 -49 72 -52 75 -90 75
-22 0 -40 -3 -40 -6z"/>
<path d="M2340 670 l0 -220 35 0 35 0 0 100 0 100 105 0 105 0 0 -100 0 -100
35 0 35 0 0 220 0 220 -35 0 -35 0 0 -85 0 -85 -105 0 -105 0 0 85 0 85 -35 0
-35 0 0 -220z"/>
<path d="M2864 871 c-41 -19 -74 -67 -74 -109 0 -56 44 -117 92 -127 l29 -7
-25 -19 c-23 -18 -116 -141 -116 -153 0 -3 19 -6 43 -6 39 0 44 3 71 47 17 25
46 64 66 85 33 33 42 38 83 38 l47 0 0 -85 0 -85 35 0 35 0 0 220 0 220 -122
0 c-98 0 -131 -4 -164 -19z m216 -117 l0 -66 -91 4 c-81 3 -93 6 -110 27 -25
31 -24 47 6 76 22 23 32 25 110 25 l85 0 0 -66z"/>
<path d="M3324 871 c-41 -19 -74 -67 -74 -109 0 -56 44 -117 92 -127 l29 -7
-25 -19 c-23 -18 -116 -141 -116 -153 0 -3 19 -6 43 -6 39 0 44 3 71 47 17 25
46 64 66 85 33 33 42 38 83 38 l47 0 0 -85 0 -85 35 0 35 0 0 220 0 220 -122
0 c-98 0 -131 -4 -164 -19z m216 -117 l0 -66 -91 4 c-81 3 -93 6 -110 27 -25
31 -24 47 6 76 22 23 32 25 110 25 l85 0 0 -66z"/>
<path d="M5050 670 l0 -220 35 0 35 0 0 100 0 100 105 0 105 0 0 -100 0 -100
35 0 35 0 0 220 0 220 -35 0 -35 0 0 -85 0 -85 -105 0 -105 0 0 85 0 85 -35 0
-35 0 0 -220z"/>
<path d="M6000 717 c0 -187 -3 -197 -52 -197 -25 0 -28 -3 -28 -35 0 -35 0
-35 46 -35 37 0 51 5 75 29 l29 29 0 156 0 156 100 0 100 0 0 -185 0 -185 35
0 35 0 0 220 0 220 -170 0 -170 0 0 -173z"/>
<path d="M6460 669 l0 -221 128 4 c102 2 133 7 158 22 43 26 64 66 64 121 0
40 -5 52 -33 80 -40 40 -89 55 -179 55 l-68 0 0 80 0 80 -35 0 -35 0 0 -221z
m261 -38 c25 -30 24 -63 -2 -87 -16 -15 -40 -20 -105 -23 l-84 -3 0 72 0 72
86 -3 c76 -4 88 -7 105 -28z"/>
</g>
</svg>
